# xmcd CD database file
#
# Track frame offsets:
#	183
#	21358
#	42658
#	63208
#	75083
#	90433
#	108058
#	126233
#	149008
#	168208
#	196670
#	224633
#	236908
#
# Disc length: 3547 seconds
#
# Revision: 0
# Processed by: cddbd v1.5.1PL0 Copyright (c) Steve Scherf et al.
# Submitted via: CDex 1.50beta9
#
DISCID=ae0dd90d
DTITLE=Ada Montellanico Quartetto and Enrico Rava - L'Altro Tenco
DYEAR=1996
DGENRE=Jazz
TTITLE0=I miei giorni perduti
TTITLE1=Quasi sera
TTITLE2=Se qualcuno te dirà
TTITLE3=Sempre la stessa storia
TTITLE4=Tu non hai capito niente
TTITLE5=Ti ricorderai
TTITLE6=Triste sera
TTITLE7=Volevo averti per me
TTITLE8=Se sapessi como fai
TTITLE9=In qualche parte del mondo
TTITLE10=Averti tra le braccia
TTITLE11=Il tempo passò
TTITLE12=Io non so niente
EXTD=YEAR: 1996
EXTT0=
EXTT1=
EXTT2=
EXTT3=
EXTT4=
EXTT5=
EXTT6=
EXTT7=
EXTT8=
EXTT9=
EXTT10=
EXTT11=
EXTT12=
PLAYORDER=
